# xmcd CD database file
#
# Track frame offsets:
#	150
#	17305
#	36460
#	52942
#	69607
#	82915
#	104320
#	129452
#	150920
#	181540
#	204605
#
# Disc length: 3057 seconds
#
# Revision: 3
# Processed by: cddbd v1.5.1PL0 Copyright (c) Steve Scherf et al.
# Submitted via: CDex 1.51
#
DISCID=7c0bef0b
DTITLE=The Yellow Monkey - The Night Snails And Plastic Boogie
DYEAR=1992
DGENRE=Rock
TTITLE0=Song For Night Snails
TTITLE1=Subjective Late Show
TTITLE2=Oh! Golden Boys
TTITLE3=Neurotic Celebration
TTITLE4=Chelsea Girl
TTITLE5=不愉快な6番街へ
TTITLE6=This Is For You
TTITLE7=Foxy Blue Love
TTITLE8=真珠色の革命時代 (Pearl Light Of Revolution)
TTITLE9=Romantist Taste
TTITLE10=Walkin' In Sunshine
EXTD=YEAR: 1992
EXTT0=
EXTT1=
EXTT2=
EXTT3=
EXTT4=
EXTT5=
EXTT6=
EXTT7=
EXTT8=
EXTT9=
EXTT10=
PLAYORDER=
